<svg xmlns="http://www.w3.org/2000/svg" viewBox="0 0 256 256">
<rect width="256" height="256" rx="28" fill="#1e1e1e"></rect>
<path fill="white" d="M128 40c-49 0-88 39-88 88 0 39 25 72 60 84 4 1 6-2 6-4v-22c-24 5-30-10-30-10-4-10-10-13-10-13-8-6 1-6 1-6 10 1 15 10 15 10 8 15 22 11 28 8 1-6 3-11 6-14-22-2-45-11-45-50 0-11 4-21 10-29-1-3-4-13 1-26 0 0 9-3 30 10a105 105 0 0 1 54 0c21-13 30-10 30-10 5 13 2 23 1 26 6 8 10 18 10 29 0 39-23 48-45 50 3 3 6 9 6 18v26c0 2 2 5 6 4a88 88 0 0 0 60-84c0-49-39-88-88-88z"></path>
</svg>
