<svg xmlns="http://www.w3.org/2000/svg" width="256" height="255" viewBox="0 0 256 255"><path fill="#306998" d="M127.9 0C59.2 0 63.2 28.4 63.2 28.4l.1 29.4h65.1v8.8H40c0 0-40 4.5-40 63.2 0 58.7 35 56.8 35 56.8h20.7v-29.2s-1-35 34.5-35h59.7s33.5.5 33.5-32.5V32.5S186.3 0 127.9 0zm-36.6 20.3a11.4 11.4 0 1 1 0 22.8 11.4 11.4 0 0 1 0-22.8z"></path><path fill="#FFD43B" d="M127.9 255c68.7 0 64.7-28.4 64.7-28.4l-.1-29.4h-65.1v-8.8H215c0 0 40-4.5 40-63.2s-35-56.8-35-56.8h-20.7v29.2s1 35-34.5 35h-59.7S72.6 131 72.6 164V222.5S69.6 255 127.9 255zm36.6-20.3a11.4 11.4 0 1 1 0-22.8 11.4 11.4 0 0 1 0 22.8z"></path></svg>
